<svg width="265" height="60" viewBox="0 0 265 60" fill="none" xmlns="http://www.w3.org/2000/svg">
<path d="M36.0519 17.1663C19.133 17.1663 9.05188 29.1664 0.0518798 44.014C0.0518798 49.5 -0.44812 52 2.55188 55.5C3.82426 56.8172 5.50178 57.6409 7.20515 58.1559C9.94858 58.9853 12.759 59.014 14.0519 59.014H250.052C254.3 58.542 256.552 60 261.052 56C265.055 52.442 264.052 49 264.052 45.014V4.51405C258.052 2.66638 254.052 1.66638 246.552 1.66638C239.052 1.66638 235.052 2.16638 230.052 4.51405C221.208 8.66638 218.052 24.1666 201.052 24.1666C187.543 24.1666 179.052 -2.33346 166.552 0.166359C151.859 3.10462 139.839 25.1998 123.052 33.6663C100.552 45.014 95.8708 43.1472 77.0519 39.1663C51.0519 33.6663 50.0519 17.1663 36.0519 17.1663Z" fill="#E4E4E4" fill-opacity="0.15"/>
</svg>
