<svg width="265" height="59" viewBox="0 0 265 59" fill="none" xmlns="http://www.w3.org/2000/svg">
<path d="M21.5519 7.66627C4.63295 7.66627 5.05188 27.1664 0.051876 42.6664C-0.44812 54.5 2.55188 58 14.0519 58H250.052C259.052 59 264.552 55 264.052 43.6664V3.16639C261.052 9.16637 259.552 15.1664 245.552 18.6664C239.052 20.2914 225.552 13.6664 206.552 15.6664C187.552 17.6664 187.552 26.6663 170.552 26.6663C157.043 26.6663 149.354 16.3456 141.052 7.66642C136.748 3.1665 121.052 -6.33373 95.0519 7.66648C75.438 18.228 76.0519 23.6663 57.0519 26.6663C38.0519 29.6663 35.5519 7.66627 21.5519 7.66627Z" fill="#E4E4E4" fill-opacity="0.23"/>
</svg>
