<?xml version="1.0" encoding="UTF-8"?>
<!DOCTYPE svg PUBLIC "-//W3C//DTD SVG 1.1//EN" "http://www.w3.org/Graphics/SVG/1.1/DTD/svg11.dtd">
<!-- Creator: CorelDRAW 2020 (64-Bit) -->
<svg xmlns="http://www.w3.org/2000/svg" xml:space="preserve" width="297mm" height="210mm" version="1.1" style="shape-rendering:geometricPrecision; text-rendering:geometricPrecision; image-rendering:optimizeQuality; fill-rule:evenodd; clip-rule:evenodd"
viewBox="0 0 29700 21000"
 xmlns:xlink="http://www.w3.org/1999/xlink"
 xmlns:xodm="http://www.corel.com/coreldraw/odm/2003">
 <defs>
  <style type="text/css">
   <![CDATA[
    .str8 {stroke:#EBECEC;stroke-width:10.58;stroke-miterlimit:22.9256}
    .str9 {stroke:#FEFEFE;stroke-width:10.58;stroke-miterlimit:22.9256}
    .str2 {stroke:#245374;stroke-width:26.46;stroke-miterlimit:22.9256}
    .str3 {stroke:#245374;stroke-width:105.83;stroke-miterlimit:22.9256}
    .str7 {stroke:#245374;stroke-width:42.33;stroke-miterlimit:22.9256}
    .str4 {stroke:#245374;stroke-width:70.56;stroke-miterlimit:22.9256}
    .str5 {stroke:#245374;stroke-width:52.92;stroke-miterlimit:22.9256}
    .str6 {stroke:#245374;stroke-width:35.28;stroke-miterlimit:22.9256}
    .str1 {stroke:#245374;stroke-width:20;stroke-miterlimit:22.9256}
    .str10 {stroke:#FEFEFE;stroke-width:20;stroke-miterlimit:22.9256}
    .str0 {stroke:#245374;stroke-width:7.62;stroke-miterlimit:22.9256}
    .fil3 {fill:none}
    .fil0 {fill:#245374}
    .fil4 {fill:#9D9B81}
    .fil2 {fill:#FEFEFE}
    .fil1 {fill:#FEFEFE;fill-rule:nonzero}
   ]]>
  </style>
 </defs>
 <g id="Layer_x0020_1">
  <metadata id="CorelCorpID_0Corel-Layer"/>
 </g>
 <g id="Layer_x0020_1_0">
  <metadata id="CorelCorpID_1Corel-Layer"/>
  <g id="_2346963169152">
   <path class="fil0" d="M14849.48 3938.39c3627.81,0 6568.73,2940.92 6568.73,6568.73 0,3627.82 -2940.92,6568.74 -6568.73,6568.74 -3627.82,0 -6568.74,-2940.92 -6568.74,-6568.74 0,-3627.81 2940.92,-6568.73 6568.74,-6568.73z"/>
   <path class="fil1" d="M13633.11 14705.29l0 147.4 -487.87 0 0 -147.4 165.72 0 0 -914.2 -165.72 0 0 -144.12 331.44 0 0 1058.32 156.43 0zm1085.4 -763.52c0,115.95 -59.61,209.2 -178.58,279.48 144.12,56.62 216.32,156.15 216.32,298.09 0,71.1 -16.69,133.17 -49.77,186.23 -33.1,53.32 -80.95,94.34 -143.31,123.61 -62.61,28.98 -136.46,43.47 -222.05,43.47 -125.52,0 -228.35,-28.99 -308.75,-87.23 -80.39,-58.25 -120.59,-146.85 -120.59,-266.08 0,-141.94 71.64,-241.47 214.66,-298.09 -118.13,-67.81 -177.2,-161.34 -177.2,-281.12 0,-67.82 17.23,-125.52 51.69,-173.11 34.45,-47.58 80.13,-82.86 137,-106.38 56.89,-23.51 119.51,-35.27 187.33,-35.27 118.96,0 214.4,28.44 285.78,85.32 71.65,56.88 107.47,133.72 107.47,231.08zm-380.67 212.22c57.16,0 107.74,-15.32 151.5,-45.95 43.75,-30.63 65.63,-79.58 65.63,-146.31 0,-65.63 -18.59,-114.03 -56.05,-145.49 -37.2,-31.17 -94.08,-46.76 -170.65,-46.76 -67.82,0 -120.88,16.68 -158.88,50.05 -38.29,33.37 -57.43,79.85 -57.43,138.92 0,63.72 19.95,112.12 59.61,145.49 39.93,33.36 95.44,50.05 166.27,50.05zm-3.01 577.01c70.01,0 127.98,-19.69 174.47,-59.07 46.49,-39.1 69.74,-92.16 69.74,-158.89 0,-65.63 -20.78,-118.41 -62.9,-158.33 -41.84,-39.65 -104.46,-59.61 -187.87,-59.61 -71.93,0 -130.17,19.96 -174.47,59.61 -44.57,39.92 -66.73,92.7 -66.73,158.33 0,65.64 22.7,118.42 68.09,158.07 45.4,39.93 105.29,59.89 179.67,59.89zm1011.01 -28.99l0 3.28 140.84 0 0 147.4 -477.47 0 0 -147.4 160.25 0c12.3,-161.89 46.49,-320.77 102.82,-476.65 56.34,-156.15 127.98,-299.73 214.4,-430.99l-417.31 0 0 165.72 -149.04 0 0 -316.4 754.77 0 0 122.51c-58.79,75.75 -113.77,170.37 -164.63,283.6 -51.14,113.21 -91.34,228.06 -120.6,344.56 -29.54,116.5 -44.03,217.96 -44.03,304.37zm1287.22 -700.89l-145.76 0c-7.93,-65.91 -31.45,-121.16 -70.28,-166 -38.56,-44.85 -87.52,-67.28 -146.86,-67.28 -75.47,0 -134.54,39.66 -178.02,118.96 -43.21,79.31 -65.91,189.51 -68.09,330.62 84.5,-88.33 179.39,-132.35 284.68,-132.35 58.52,0 113.48,14.49 164.62,43.48 50.86,28.71 91.88,71.1 122.79,126.89 31.18,55.78 46.49,122.52 46.49,199.91 0,76.84 -14.22,146.85 -42.39,210.29 -28.44,63.17 -70.01,113.5 -124.7,150.96 -54.69,37.46 -119.78,56.05 -194.98,56.05 -81.23,0 -152.87,-21.87 -215.22,-65.63 -62.08,-43.75 -111.03,-111.03 -146.58,-201.82 -35.55,-90.78 -53.33,-204 -53.33,-339.64 0,-200.45 36.37,-357.15 109.11,-470.37 72.48,-113.21 177.76,-169.82 315.59,-169.82 105.29,0 187.88,35 248.04,104.74 60.16,70.01 91.6,160.25 94.89,271.01zm-359.61 726.6c66.72,0 119.5,-24.34 158.61,-73.02 38.83,-48.4 58.25,-109.38 58.25,-182.67 0,-66.73 -17.5,-121.7 -53.05,-164.9 -35.55,-43.22 -85.06,-64.81 -148.78,-64.81 -86.41,0 -172.01,53.05 -256.23,159.43 26.53,217.12 106.92,325.97 241.2,325.97z"/>
   <path class="fil1" d="M12996.68 6424.29l0 906 139.46 0 0 150.69 -472.82 0 0 -150.69 150.68 0 0 -906 -150.68 0 0 -150.68 488.69 0 0 150.68 -155.33 0zm599.98 0l-374.1 419.78 384.5 486.22 129.08 0 0 150.69 -490.33 0 0 -150.69 132.9 0 -362.89 -480.75 374.37 -425.25 -139.46 0 0 -150.68 474.19 0 0 150.68 -128.26 0zm1039.18 201.82l0 -201.82 -516.85 0 0 359.62 449.58 0 0 150.67 -449.58 0 0 395.71 516.85 0 0 -220.14 149.05 0 0 370.83 -1003.91 0 0 -150.69 155.34 0 0 -906 -155.34 0 0 -150.68 1003.91 0 0 352.5 -149.05 0zm1310.47 -352.5l418.41 0 0 150.68 -146.03 0 0 906 146.03 0 0 150.69 -454.5 0 0 -150.69 142.75 0 0 -906 -415.13 1069.54 -35.83 0 -411.84 -1069.54 0 906 132.9 0 0 150.69 -428.51 0 0 -150.69 146.57 0 0 -906 -146.57 0 0 -150.68 414.03 0 318.04 826.7 319.68 -826.7zm1352.58 441.38l0 -290.7 -249.41 0 0 906 157.24 0 0 150.69 -493.61 0 0 -150.69 153.69 0 0 -906 -247.49 0 0 290.7 -149.04 0 0 -441.38 977.38 0 0 441.38 -148.76 0z"/>
   <polygon class="fil2 str0" points="9151.84,9418.82 9086.98,9216.38 20609.12,9216.38 20548.62,9417.17 20559.73,10921.8 9134.31,10940.36 "/>
   <polygon class="fil2 str1" points="9151.84,10940.35 9512.45,10940.35 9512.45,9418.82 9151.84,9418.82 "/>
   <polygon class="fil2 str1" points="9086.98,9216.38 9577.3,9216.38 9512.45,9418.82 9151.84,9418.82 "/>
   <polygon class="fil2 str1" points="9827.95,9418.82 10106.33,9418.82 10106.33,10940.35 9827.95,10940.35 "/>
   <polygon class="fil2 str1" points="10437.7,9418.82 10716.07,9418.82 10716.07,10940.35 10437.7,10940.35 "/>
   <polygon class="fil2 str1" points="11047.43,9418.82 11325.8,9418.82 11325.8,10940.35 11047.43,10940.35 "/>
   <polygon class="fil2 str1" points="11657.17,9418.82 11935.53,9418.82 11935.53,10940.35 11657.17,10940.35 "/>
   <polygon class="fil2 str1" points="12266.9,9418.82 12545.27,9418.82 12545.27,10940.35 12266.9,10940.35 "/>
   <polygon class="fil2 str1" points="12876.63,9418.82 13155,9418.82 13155,10940.35 12876.63,10940.35 "/>
   <polygon class="fil2 str1" points="13486.37,9418.82 13764.74,9418.82 13764.74,10940.35 13486.37,10940.35 "/>
   <polygon class="fil2 str1" points="14096.1,9418.82 14374.47,9418.82 14374.47,10940.35 14096.1,10940.35 "/>
   <polygon class="fil2 str1" points="14705.84,9418.82 14984.2,9418.82 14984.2,10940.35 14705.84,10940.35 "/>
   <polygon class="fil2 str1" points="15315.57,9418.82 15593.94,9418.82 15593.94,10940.35 15315.57,10940.35 "/>
   <polygon class="fil2 str1" points="15925.3,9418.82 16203.67,9418.82 16203.67,10940.35 15925.3,10940.35 "/>
   <polygon class="fil2 str1" points="16535.04,9418.82 16813.41,9418.82 16813.41,10940.35 16535.04,10940.35 "/>
   <polygon class="fil2 str1" points="17144.77,9418.82 17423.14,9418.82 17423.14,10940.35 17144.77,10940.35 "/>
   <polygon class="fil2 str1" points="17754.51,9418.82 18032.87,9418.82 18032.87,10940.35 17754.51,10940.35 "/>
   <polygon class="fil2 str1" points="18364.24,9418.82 18642.61,9418.82 18642.61,10940.35 18364.24,10940.35 "/>
   <polygon class="fil2 str1" points="18973.97,9418.82 19252.34,9418.82 19252.34,10940.35 18973.97,10940.35 "/>
   <polygon class="fil2 str1" points="19583.71,9418.82 19862.09,9418.82 19862.09,10940.35 19583.71,10940.35 "/>
   <polygon class="fil2 str1" points="20185.27,10940.35 20545.88,10940.35 20545.88,9418.82 20185.27,9418.82 "/>
   <polygon class="fil2 str1" points="20118.8,9216.38 20609.12,9216.38 20544.26,9418.82 20183.65,9418.82 "/>
   <polygon class="fil2 str1" points="9776.52,9216.38 10159.32,9216.38 10106.33,9418.82 9827.95,9418.82 "/>
   <polygon class="fil2 str1" points="10386.27,9216.38 10769.05,9216.38 10716.07,9418.82 10437.7,9418.82 "/>
   <polygon class="fil2 str1" points="10996,9216.38 11378.78,9216.38 11325.8,9418.82 11047.43,9418.82 "/>
   <polygon class="fil2 str1" points="11605.73,9216.38 11988.52,9216.38 11935.53,9418.82 11657.17,9418.82 "/>
   <polygon class="fil2 str1" points="12215.47,9216.38 12598.25,9216.38 12545.27,9418.82 12266.9,9418.82 "/>
   <polygon class="fil2 str1" points="12825.2,9216.38 13207.99,9216.38 13155,9418.82 12876.63,9418.82 "/>
   <polygon class="fil2 str1" points="13434.94,9216.38 13817.72,9216.38 13764.74,9418.82 13486.37,9418.82 "/>
   <polygon class="fil2 str1" points="14044.67,9216.38 14427.45,9216.38 14374.47,9418.82 14096.1,9418.82 "/>
   <polygon class="fil2 str1" points="14654.4,9216.38 15037.19,9216.38 14984.2,9418.82 14705.84,9418.82 "/>
   <polygon class="fil2 str1" points="15264.14,9216.38 15646.92,9216.38 15593.94,9418.82 15315.57,9418.82 "/>
   <polygon class="fil2 str1" points="15873.87,9216.38 16256.65,9216.38 16203.67,9418.82 15925.3,9418.82 "/>
   <polygon class="fil2 str1" points="16483.6,9216.38 16866.39,9216.38 16813.41,9418.82 16535.04,9418.82 "/>
   <polygon class="fil2 str1" points="17093.34,9216.38 17476.12,9216.38 17423.14,9418.82 17144.77,9418.82 "/>
   <polygon class="fil2 str1" points="17703.07,9216.38 18085.86,9216.38 18032.87,9418.82 17754.51,9418.82 "/>
   <polygon class="fil2 str1" points="18312.81,9216.38 18695.59,9216.38 18642.61,9418.82 18364.24,9418.82 "/>
   <polygon class="fil2 str1" points="18922.54,9216.38 19305.32,9216.38 19252.34,9418.82 18973.97,9418.82 "/>
   <polygon class="fil2 str1" points="19532.27,9216.38 19915.07,9216.38 19862.09,9418.82 19583.71,9418.82 "/>
   <polygon class="fil2 str2" points="20609.12,9216.38 20609.35,8973.27 20824.35,8688.4 8870.51,8688.4 9085.61,8973.27 9086.98,9216.38 "/>
   <line class="fil3 str3" x1="9085.61" y1="8973.27" x2="20609.35" y2= "8973.27" />
   <line class="fil3 str1" x1="20609.35" y1="9123.42" x2="9085.61" y2= "9123.42" />
   <polygon class="fil2 str2" points="8939.24,8779.4 20755.66,8779.4 20724.03,8821.32 8970.88,8821.32 "/>
   <path class="fil2" d="M13155.01 10948.67l166.28 210.99 38.59 142.58 -1.23 810.47 -5511.86 -0.44 0.39 -2632.37 -76.71 -139.18 1353.64 0 26.03 81.27 1.71 1526.86 4003.16 -0.18zm7390.77 0l2.84 -1531.5 26.02 -77.88 1353.83 1.29 -76.71 139.32 -0.59 2631.93 -5312.07 0.06 -0.55 -809.21 40.47 -145.18 143.11 -0.01 88.24 -208.64 3735.51 0 -0.1 -0.18z"/>
   <path id="_1" class="fil3 str1" d="M13155.01 10948.67l166.28 210.99 38.59 142.58 -1.23 810.47 -5511.86 -0.44 0.39 -2632.37 -76.71 -139.18 1353.64 0 26.03 81.27 1.71 1526.86 4003.16 -0.18zm7390.77 0l2.84 -1531.5 26.02 -77.88 1353.83 1.29 -76.71 139.32 -0.59 2631.93 -5312.07 0.06 -0.55 -809.21 40.47 -145.18 143.11 -0.01 88.24 -208.64 3735.51 0"/>
   <line class="fil3 str1" x1="7847.17" y1="9471.41" x2="9151.84" y2= "9471.41" />
   <line class="fil3 str1" x1="21851.75" y1="9471.41" x2="20545.88" y2= "9471.41" />
   <polygon class="fil2 str1" points="13155,10940.35 13320.71,11149.01 16722.79,11149.01 16813.41,10940.35 "/>
   <polygon class="fil2 str1" points="13359.87,12324.54 13359.87,12106.75 13359.87,11293.75 13561.75,11293.75 13561.75,12324.54 "/>
   <polygon class="fil2 str1" points="13955.26,12324.54 13955.26,11293.75 14157.13,11293.75 14157.13,12324.54 "/>
   <polygon class="fil2 str1" points="14550.65,12324.54 14550.65,11293.75 14752.52,11293.75 14752.52,12324.54 "/>
   <polygon class="fil2 str1" points="15146.03,12324.54 15146.03,11293.75 15347.91,11293.75 15347.91,12324.54 "/>
   <polygon class="fil2 str1" points="15741.42,12324.54 15741.42,11293.75 15943.29,11293.75 15943.29,12324.54 "/>
   <polygon class="fil2 str1" points="16336.81,12324.54 16336.81,11293.75 16538.68,11293.75 16538.68,12324.54 "/>
   <polygon class="fil2 str1" points="13320.71,11149.01 13602.87,11149.01 13563.81,11293.75 13358.63,11293.75 "/>
   <polygon class="fil2 str1" points="13916.1,11149.01 14198.25,11149.01 14159.2,11293.75 13954.01,11293.75 "/>
   <polygon class="fil2 str1" points="14511.49,11149.01 14793.64,11149.01 14754.59,11293.75 14549.4,11293.75 "/>
   <polygon class="fil2 str1" points="15106.88,11149.01 15389.03,11149.01 15349.97,11293.75 15144.79,11293.75 "/>
   <polygon class="fil2 str1" points="15702.26,11149.01 15984.42,11149.01 15945.36,11293.75 15740.17,11293.75 "/>
   <polygon class="fil2 str1" points="16297.65,11149.01 16579.8,11149.01 16540.75,11293.75 16335.56,11293.75 "/>
   <polygon class="fil0 str1" points="9144.11,8821.32 9240.58,8821.32 9242.17,8870.36 9142.52,8868.77 "/>
   <polygon class="fil0 str1" points="9309.09,8821.32 9405.57,8821.32 9407.15,8870.36 9307.51,8868.77 "/>
   <polygon class="fil0 str1" points="9474.08,8821.32 9570.55,8821.32 9572.14,8870.36 9472.49,8868.77 "/>
   <polygon class="fil0 str1" points="9639.07,8821.32 9735.54,8821.32 9737.13,8870.36 9637.48,8868.77 "/>
   <polygon class="fil0 str1" points="9804.05,8821.32 9900.54,8821.32 9902.12,8870.36 9802.47,8868.77 "/>
   <polygon class="fil0 str1" points="9969.05,8821.32 10065.52,8821.32 10067.11,8870.36 9967.46,8868.77 "/>
   <polygon class="fil0 str1" points="10134.04,8821.32 10230.51,8821.32 10232.1,8870.36 10132.45,8868.77 "/>
   <polygon class="fil0 str1" points="10299.02,8821.32 10395.5,8821.32 10397.08,8870.36 10297.44,8868.77 "/>
   <polygon class="fil0 str1" points="10464.01,8821.32 10560.48,8821.32 10562.07,8870.36 10462.43,8868.77 "/>
   <polygon class="fil0 str1" points="10629,8821.32 10725.47,8821.32 10727.06,8870.36 10627.41,8868.77 "/>
   <polygon class="fil0 str1" points="10793.98,8821.32 10890.46,8821.32 10892.04,8870.36 10792.4,8868.77 "/>
   <polygon class="fil0 str1" points="10958.97,8821.32 11055.45,8821.32 11057.03,8870.36 10957.39,8868.77 "/>
   <polygon class="fil0 str1" points="11123.96,8821.32 11220.43,8821.32 11222.02,8870.36 11122.37,8868.77 "/>
   <polygon class="fil0 str1" points="11288.94,8821.32 11385.42,8821.32 11387,8870.36 11287.36,8868.77 "/>
   <polygon class="fil0 str1" points="11453.93,8821.32 11550.41,8821.32 11551.99,8870.36 11452.35,8868.77 "/>
   <polygon class="fil0 str1" points="11618.92,8821.32 11715.39,8821.32 11716.98,8870.36 11617.33,8868.77 "/>
   <polygon class="fil0 str1" points="11783.9,8821.32 11880.38,8821.32 11881.96,8870.36 11782.32,8868.77 "/>
   <polygon class="fil0 str1" points="11948.89,8821.32 12045.37,8821.32 12046.95,8870.36 11947.31,8868.77 "/>
   <polygon class="fil0 str1" points="12113.88,8821.32 12210.35,8821.32 12211.94,8870.36 12112.29,8868.77 "/>
   <polygon class="fil0 str1" points="12278.87,8821.32 12375.34,8821.32 12376.92,8870.36 12277.28,8868.77 "/>
   <polygon class="fil0 str1" points="12443.85,8821.32 12540.33,8821.32 12541.91,8870.36 12442.27,8868.77 "/>
   <polygon class="fil0 str1" points="12608.84,8821.32 12705.31,8821.32 12706.9,8870.36 12607.25,8868.77 "/>
   <polygon class="fil0 str1" points="12773.83,8821.32 12870.3,8821.32 12871.89,8870.36 12772.24,8868.77 "/>
   <polygon class="fil0 str1" points="12938.81,8821.32 13035.29,8821.32 13036.87,8870.36 12937.23,8868.77 "/>
   <polygon class="fil0 str1" points="13103.8,8821.32 13200.27,8821.32 13201.86,8870.36 13102.21,8868.77 "/>
   <polygon class="fil0 str1" points="13268.79,8821.32 13365.26,8821.32 13366.85,8870.36 13267.2,8868.77 "/>
   <polygon class="fil0 str1" points="13433.77,8821.32 13530.25,8821.32 13531.83,8870.36 13432.19,8868.77 "/>
   <polygon class="fil0 str1" points="13598.76,8821.32 13695.23,8821.32 13696.82,8870.36 13597.17,8868.77 "/>
   <polygon class="fil0 str1" points="13763.75,8821.32 13860.22,8821.32 13861.81,8870.36 13762.16,8868.77 "/>
   <polygon class="fil0 str1" points="13928.73,8821.32 14025.21,8821.32 14026.79,8870.36 13927.15,8868.77 "/>
   <polygon class="fil0 str1" points="14093.72,8821.32 14190.19,8821.32 14191.78,8870.36 14092.14,8868.77 "/>
   <polygon class="fil0 str1" points="14258.71,8821.32 14355.18,8821.32 14356.77,8870.36 14257.12,8868.77 "/>
   <polygon class="fil0 str1" points="14423.69,8821.32 14520.17,8821.32 14521.75,8870.36 14422.11,8868.77 "/>
   <polygon class="fil0 str1" points="14588.68,8821.32 14685.16,8821.32 14686.74,8870.36 14587.1,8868.77 "/>
   <polygon class="fil0 str1" points="14753.67,8821.32 14850.14,8821.32 14851.73,8870.36 14752.08,8868.77 "/>
   <polygon class="fil0 str1" points="14918.65,8821.32 15015.13,8821.32 15016.71,8870.36 14917.07,8868.77 "/>
   <polygon class="fil0 str1" points="15083.64,8821.32 15180.12,8821.32 15181.7,8870.36 15082.06,8868.77 "/>
   <polygon class="fil0 str1" points="15248.63,8821.32 15345.1,8821.32 15346.69,8870.36 15247.04,8868.77 "/>
   <polygon class="fil0 str1" points="15413.61,8821.32 15510.09,8821.32 15511.67,8870.36 15412.03,8868.77 "/>
   <polygon class="fil0 str1" points="15578.6,8821.32 15675.08,8821.32 15676.66,8870.36 15577.02,8868.77 "/>
   <polygon class="fil0 str1" points="15743.59,8821.32 15840.06,8821.32 15841.65,8870.36 15742,8868.77 "/>
   <polygon class="fil0 str1" points="15908.58,8821.32 16005.05,8821.32 16006.63,8870.36 15906.99,8868.77 "/>
   <polygon class="fil0 str1" points="16073.56,8821.32 16170.04,8821.32 16171.62,8870.36 16071.98,8868.77 "/>
   <polygon class="fil0 str1" points="16238.55,8821.32 16335.02,8821.32 16336.61,8870.36 16236.96,8868.77 "/>
   <polygon class="fil0 str1" points="16403.54,8821.32 16500.01,8821.32 16501.6,8870.36 16401.95,8868.77 "/>
   <polygon class="fil0 str1" points="16568.52,8821.32 16665,8821.32 16666.58,8870.36 16566.94,8868.77 "/>
   <polygon class="fil0 str1" points="16733.51,8821.32 16829.98,8821.32 16831.57,8870.36 16731.92,8868.77 "/>
   <polygon class="fil0 str1" points="16898.5,8821.32 16994.97,8821.32 16996.56,8870.36 16896.91,8868.77 "/>
   <polygon class="fil0 str1" points="17063.48,8821.32 17159.96,8821.32 17161.54,8870.36 17061.9,8868.77 "/>
   <polygon class="fil0 str1" points="17228.47,8821.32 17324.94,8821.32 17326.53,8870.36 17226.88,8868.77 "/>
   <polygon class="fil0 str1" points="17393.46,8821.32 17489.93,8821.32 17491.52,8870.36 17391.87,8868.77 "/>
   <polygon class="fil0 str1" points="17558.44,8821.32 17654.92,8821.32 17656.5,8870.36 17556.86,8868.77 "/>
   <polygon class="fil0 str1" points="17723.43,8821.32 17819.9,8821.32 17821.49,8870.36 17721.85,8868.77 "/>
   <polygon class="fil0 str1" points="17888.42,8821.32 17984.89,8821.32 17986.48,8870.36 17886.83,8868.77 "/>
   <polygon class="fil0 str1" points="18053.4,8821.32 18149.88,8821.32 18151.46,8870.36 18051.82,8868.77 "/>
   <polygon class="fil0 str1" points="18218.39,8821.32 18314.87,8821.32 18316.45,8870.36 18216.81,8868.77 "/>
   <polygon class="fil0 str1" points="18383.38,8821.32 18479.85,8821.32 18481.44,8870.36 18381.79,8868.77 "/>
   <polygon class="fil0 str1" points="18548.36,8821.32 18644.84,8821.32 18646.42,8870.36 18546.78,8868.77 "/>
   <polygon class="fil0 str1" points="18713.35,8821.32 18809.83,8821.32 18811.41,8870.36 18711.77,8868.77 "/>
   <polygon class="fil0 str1" points="18878.34,8821.32 18974.81,8821.32 18976.4,8870.36 18876.75,8868.77 "/>
   <polygon class="fil0 str1" points="19043.32,8821.32 19139.8,8821.32 19141.38,8870.36 19041.74,8868.77 "/>
   <polygon class="fil0 str1" points="19208.31,8821.32 19304.79,8821.32 19306.37,8870.36 19206.73,8868.77 "/>
   <polygon class="fil0 str1" points="19373.3,8821.32 19469.77,8821.32 19471.36,8870.36 19371.71,8868.77 "/>
   <polygon class="fil0 str1" points="19538.29,8821.32 19634.76,8821.32 19636.34,8870.36 19536.7,8868.77 "/>
   <polygon class="fil0 str1" points="19703.27,8821.32 19799.75,8821.32 19801.33,8870.36 19701.69,8868.77 "/>
   <polygon class="fil0 str1" points="19868.27,8821.32 19964.74,8821.32 19966.33,8870.36 19866.68,8868.77 "/>
   <polygon class="fil0 str1" points="20033.26,8821.32 20129.73,8821.32 20131.32,8870.36 20031.67,8868.77 "/>
   <polygon class="fil0 str1" points="20198.24,8821.32 20294.72,8821.32 20296.3,8870.36 20196.66,8868.77 "/>
   <polygon class="fil0 str1" points="20363.23,8821.32 20459.7,8821.32 20461.29,8870.36 20361.64,8868.77 "/>
   <polygon class="fil0 str1" points="20528.22,8821.32 20624.69,8821.32 20626.28,8870.36 20526.63,8868.77 "/>
   <polygon class="fil0 str1" points="8968.74,8818.55 9065.21,8818.55 9066.8,8867.59 8993.25,8866.42 "/>
   <polygon class="fil2 str1" points="7846.78,12124.34 13359.87,12124.34 13359.87,12325.85 7846.78,12325.85 "/>
   <polygon class="fil2 str1" points="16539.1,12119.21 21851.83,12119.21 21851.83,12321.09 16539.1,12321.09 "/>
   <line class="fil3 str4" x1="21851.42" y1="10940.35" x2="7846.95" y2= "10940.35" />
   <polygon class="fil0 str0" points="9512.45,9436.11 9805.75,9436.11 9805.75,9817.28 9512.45,9817.28 "/>
   <polygon class="fil0 str0" points="9512.45,10032.48 9805.75,10032.48 9805.75,10413.65 9512.45,10413.65 "/>
   <polygon class="fil0 str0" points="9512.45,10628.85 9805.75,10628.85 9805.75,10940.35 9512.45,10940.35 "/>
   <polygon class="fil0 str0" points="10106.34,9436.11 10401.15,9436.11 10401.15,9817.28 10106.34,9817.28 "/>
   <polygon class="fil0 str0" points="10106.34,10032.48 10401.15,10032.48 10401.15,10413.65 10106.34,10413.65 "/>
   <polygon class="fil0 str0" points="10106.34,10628.85 10401.15,10628.85 10401.15,10940.35 10106.34,10940.35 "/>
   <polygon class="fil0 str0" points="10716.07,9436.11 11015.73,9436.11 11015.73,9817.28 10716.07,9817.28 "/>
   <polygon class="fil0 str0" points="10716.07,10032.48 11015.73,10032.48 11015.73,10413.65 10716.07,10413.65 "/>
   <polygon class="fil0 str0" points="10716.07,10628.85 11015.73,10628.85 11015.73,10940.35 10716.07,10940.35 "/>
   <polygon class="fil0 str0" points="11325.8,9436.11 11625.35,9436.11 11625.35,9817.28 11325.8,9817.28 "/>
   <polygon class="fil0 str0" points="11325.8,10032.48 11625.35,10032.48 11625.35,10413.65 11325.8,10413.65 "/>
   <polygon class="fil0 str0" points="11325.8,10628.85 11625.35,10628.85 11625.35,10940.35 11325.8,10940.35 "/>
   <polygon class="fil0 str0" points="11935.54,9436.11 12234.98,9436.11 12234.98,9817.28 11935.54,9817.28 "/>
   <polygon class="fil0 str0" points="11935.54,10032.48 12234.98,10032.48 12234.98,10413.65 11935.54,10413.65 "/>
   <polygon class="fil0 str0" points="11935.54,10628.85 12234.98,10628.85 12234.98,10940.35 11935.54,10940.35 "/>
   <polygon class="fil0 str0" points="12545.27,9436.11 12843.02,9436.11 12843.02,9817.28 12545.27,9817.28 "/>
   <polygon class="fil0 str0" points="12545.27,10032.48 12843.02,10032.48 12843.02,10413.65 12545.27,10413.65 "/>
   <polygon class="fil0 str0" points="12545.27,10628.85 12843.02,10628.85 12843.02,10940.2 12545.27,10940.2 "/>
   <polygon class="fil0 str0" points="13155,9436.11 13451.05,9436.11 13451.05,9817.28 13155,9817.28 "/>
   <polygon class="fil0 str0" points="13155,10032.48 13451.05,10032.48 13451.05,10413.65 13155,10413.65 "/>
   <polygon class="fil0 str0" points="13155,10628.85 13451.05,10628.85 13451.05,10940.35 13155,10940.35 "/>
   <polygon class="fil0 str0" points="13764.74,9436.11 14065.42,9436.11 14065.42,9817.28 13764.74,9817.28 "/>
   <polygon class="fil0 str0" points="13764.74,10032.48 14065.42,10032.48 14065.42,10413.65 13764.74,10413.65 "/>
   <polygon class="fil0 str0" points="13764.74,10628.85 14065.42,10628.85 14065.42,10940.35 13764.74,10940.35 "/>
   <polygon class="fil0 str0" points="14374.47,9436.11 14675.81,9436.11 14675.81,9817.28 14374.47,9817.28 "/>
   <polygon class="fil0 str0" points="14374.47,10032.48 14675.81,10032.48 14675.81,10413.65 14374.47,10413.65 "/>
   <polygon class="fil0 str0" points="14374.47,10628.85 14675.81,10628.85 14675.81,10940.35 14374.47,10940.35 "/>
   <polygon class="fil0 str0" points="14984.2,9436.11 15281.19,9436.11 15281.19,9817.28 14984.2,9817.28 "/>
   <polygon class="fil0 str0" points="14984.2,10032.48 15281.19,10032.48 15281.19,10413.65 14984.2,10413.65 "/>
   <polygon class="fil0 str0" points="14984.2,10628.85 15281.19,10628.85 15281.19,10940.35 14984.2,10940.35 "/>
   <polygon class="fil0 str0" points="15593.94,9436.11 15894.49,9436.11 15894.49,9817.28 15593.94,9817.28 "/>
   <polygon class="fil0 str0" points="15593.94,10032.48 15894.49,10032.48 15894.49,10413.65 15593.94,10413.65 "/>
   <polygon class="fil0 str0" points="15593.94,10628.85 15894.49,10628.85 15894.49,10940.35 15593.94,10940.35 "/>
   <polygon class="fil0 str0" points="16203.67,9436.11 16501.45,9436.11 16501.45,9817.28 16203.67,9817.28 "/>
   <polygon class="fil0 str0" points="16203.67,10032.48 16501.45,10032.48 16501.45,10413.65 16203.67,10413.65 "/>
   <polygon class="fil0 str0" points="16203.67,10628.85 16501.45,10628.85 16501.45,10940.35 16203.67,10940.35 "/>
   <polygon class="fil0 str0" points="16813.4,9436.11 17116.34,9436.11 17116.34,9817.28 16813.4,9817.28 "/>
   <polygon class="fil0 str0" points="16813.4,10032.48 17116.34,10032.48 17116.34,10413.65 16813.4,10413.65 "/>
   <polygon class="fil0 str0" points="16813.4,10628.85 17116.34,10628.85 17116.34,10940.35 16813.4,10940.35 "/>
   <polygon class="fil0 str0" points="17423.14,9436.11 17721.73,9436.11 17721.73,9817.28 17423.14,9817.28 "/>
   <polygon class="fil0 str0" points="17423.14,10032.48 17721.73,10032.48 17721.73,10413.65 17423.14,10413.65 "/>
   <polygon class="fil0 str0" points="17423.14,10628.85 17721.73,10628.85 17721.73,10940.35 17423.14,10940.35 "/>
   <polygon class="fil0 str0" points="18032.87,9436.11 18333.45,9436.11 18333.45,9817.28 18032.87,9817.28 "/>
   <polygon class="fil0 str0" points="18032.87,10032.48 18333.45,10032.48 18333.45,10413.65 18032.87,10413.65 "/>
   <polygon class="fil0 str0" points="18032.87,10628.85 18333.45,10628.85 18333.45,10940.35 18032.87,10940.35 "/>
   <polygon class="fil0 str0" points="18642.6,9436.11 18941.99,9436.11 18941.99,9817.28 18642.6,9817.28 "/>
   <polygon class="fil0 str0" points="18642.6,10032.48 18941.99,10032.48 18941.99,10413.65 18642.6,10413.65 "/>
   <polygon class="fil0 str0" points="18642.6,10628.85 18941.99,10628.85 18941.99,10940.35 18642.6,10940.35 "/>
   <polygon class="fil0 str0" points="19252.34,9436.11 19548.96,9436.11 19548.96,9817.28 19252.34,9817.28 "/>
   <polygon class="fil0 str0" points="19252.34,10032.48 19548.96,10032.48 19548.96,10413.65 19252.34,10413.65 "/>
   <polygon class="fil0 str0" points="19252.34,10628.85 19548.96,10628.85 19548.96,10940.35 19252.34,10940.35 "/>
   <polygon class="fil0 str0" points="19862.08,9436.11 20160.68,9436.11 20160.68,9817.28 19862.08,9817.28 "/>
   <polygon class="fil0 str0" points="19862.08,10032.48 20160.68,10032.48 20160.68,10413.65 19862.08,10413.65 "/>
   <polygon class="fil0 str0" points="19862.08,10628.85 20160.68,10628.85 20160.68,10940.35 19862.08,10940.35 "/>
   <polygon class="fil0 str1" points="9637.4,9261.12 9562.96,9261.12 9577.3,9216.38 9776.52,9216.38 9827.95,9418.82 9828.02,10940.32 9805.75,10940.35 9805.75,9436.11 9754.79,9261.12 "/>
   <polygon class="fil0 str1" points="10147.6,9261.12 10159.32,9216.38 10380.73,9216.38 10432.17,9418.82 10432.23,10940.32 10409.97,10940.35 10409.97,9436.11 10359.01,9261.12 "/>
   <polygon class="fil0 str1" points="10757.34,9261.12 10769.05,9216.38 10990.47,9216.38 11041.9,9418.82 11041.97,10940.32 11019.7,10940.35 11019.7,9436.11 10968.74,9261.12 "/>
   <polygon class="fil0 str1" points="11367.07,9261.12 11378.78,9216.38 11600.2,9216.38 11651.64,9418.82 11651.7,10940.32 11629.43,10940.35 11629.43,9436.11 11578.47,9261.12 "/>
   <polygon class="fil0 str1" points="11976.8,9261.12 11988.52,9216.38 12209.94,9216.38 12261.37,9418.82 12261.43,10940.32 12239.17,10940.35 12239.17,9436.11 12188.21,9261.12 "/>
   <polygon class="fil0 str1" points="12586.54,9261.12 12598.25,9216.38 12819.67,9216.38 12871.1,9418.82 12871.17,10940.32 12848.9,10940.35 12848.9,9436.11 12797.94,9261.12 "/>
   <polygon class="fil0 str1" points="13196.27,9261.12 13207.98,9216.38 13429.4,9216.38 13480.84,9418.82 13480.9,10940.32 13458.64,10940.35 13458.64,9436.11 13407.68,9261.12 "/>
   <polygon class="fil0 str1" points="13806,9261.12 13817.72,9216.38 14039.14,9216.38 14090.57,9418.82 14090.63,10940.32 14068.37,10940.35 14068.37,9436.11 14017.41,9261.12 "/>
   <polygon class="fil0 str1" points="14415.74,9261.12 14427.45,9216.38 14648.87,9216.38 14700.3,9418.82 14700.37,10940.32 14678.1,10940.35 14678.1,9436.11 14627.14,9261.12 "/>
   <polygon class="fil0 str1" points="15025.47,9261.12 15037.19,9216.38 15258.61,9216.38 15310.04,9418.82 15310.1,10940.32 15287.84,10940.35 15287.84,9436.11 15236.88,9261.12 "/>
   <polygon class="fil0 str1" points="15635.21,9261.12 15646.92,9216.38 15868.34,9216.38 15919.77,9418.82 15919.84,10940.32 15897.57,10940.35 15897.57,9436.11 15846.61,9261.12 "/>
   <polygon class="fil0 str1" points="16244.94,9261.12 16256.65,9216.38 16478.07,9216.38 16529.51,9418.82 16529.57,10940.32 16507.3,10940.35 16507.3,9436.11 16456.34,9261.12 "/>
   <polygon class="fil0 str1" points="16854.67,9261.12 16866.39,9216.38 17087.81,9216.38 17139.24,9418.82 17139.3,10940.32 17117.04,10940.35 17117.04,9436.11 17066.08,9261.12 "/>
   <polygon class="fil0 str1" points="17464.41,9261.12 17476.12,9216.38 17697.54,9216.38 17748.97,9418.82 17749.04,10940.32 17726.77,10940.35 17726.77,9436.11 17675.81,9261.12 "/>
   <polygon class="fil0 str1" points="18074.14,9261.12 18085.85,9216.38 18307.27,9216.38 18358.71,9418.82 18358.77,10940.32 18336.51,10940.35 18336.51,9436.11 18285.55,9261.12 "/>
   <polygon class="fil0 str1" points="18683.87,9261.12 18695.59,9216.38 18917.01,9216.38 18968.44,9418.82 18968.51,10940.32 18946.24,10940.35 18946.24,9436.11 18895.28,9261.12 "/>
   <polygon class="fil0 str1" points="19293.61,9261.12 19305.32,9216.38 19526.74,9216.38 19578.17,9418.82 19578.24,10940.32 19555.97,10940.35 19555.97,9436.11 19505.01,9261.12 "/>
   <polygon class="fil0 str1" points="19903.35,9261.12 19915.07,9216.38 20136.49,9216.38 20187.92,9418.82 20187.98,10940.32 20165.72,10940.35 20165.72,9436.11 20114.76,9261.12 "/>
   <line class="fil3 str5" x1="9086.98" y1="9216.38" x2="20609.12" y2= "9216.38" />
   <polygon class="fil0 str0" points="8864.32,9525.42 9054.1,9525.42 9054.1,9882.34 8864.32,9882.34 "/>
   <polygon class="fil0 str0" points="8864.32,10097.54 9054.1,10097.54 9054.1,10454.46 8864.32,10454.46 "/>
   <polygon class="fil0 str0" points="8864.32,10669.66 9054.1,10669.66 9054.1,10940.35 8864.32,10940.35 "/>
   <polygon class="fil0 str0" points="8619.17,9525.42 8808.96,9525.42 8808.96,9882.34 8619.17,9882.34 "/>
   <polygon class="fil0 str0" points="8619.17,10097.54 8808.96,10097.54 8808.96,10454.46 8619.17,10454.46 "/>
   <polygon class="fil0 str0" points="8619.17,10669.66 8808.96,10669.66 8808.96,10940.35 8619.17,10940.35 "/>
   <polygon class="fil0 str0" points="20888.58,9524.72 21078.38,9524.72 21078.38,9881.65 20888.58,9881.65 "/>
   <polygon class="fil0 str0" points="20888.58,10096.84 21078.38,10096.84 21078.38,10453.76 20888.58,10453.76 "/>
   <polygon class="fil0 str0" points="20888.58,10668.96 21078.38,10668.96 21078.38,10939.65 20888.58,10939.65 "/>
   <polygon class="fil0 str0" points="20643.44,9524.72 20833.24,9524.72 20833.24,9881.65 20643.44,9881.65 "/>
   <polygon class="fil0 str0" points="20643.44,10096.84 20833.24,10096.84 20833.24,10453.76 20643.44,10453.76 "/>
   <polygon class="fil0 str0" points="20643.44,10668.96 20833.24,10668.96 20833.24,10939.65 20643.44,10939.65 "/>
   <line class="fil3 str6" x1="9134.31" y1="9474.39" x2="9135.85" y2= "10926.64" />
   <line class="fil3 str6" x1="20561.27" y1="9475.68" x2="20559.73" y2= "10921.8" />
   <path class="fil3 str7" d="M9147.39 11290.85c0,-90.92 -79,-149.79 -157.51,-149.2 -82.27,0.62 -154.78,67.53 -154.78,149.61"/>
   <path class="fil3 str7" d="M8500.81 11291.69c0,-90.92 -79,-149.79 -157.52,-149.2 -82.26,0.62 -154.78,67.53 -154.78,149.61"/>
   <path class="fil3 str7" d="M9792.99 11290.85c0,-90.92 -79,-149.79 -157.51,-149.2 -82.27,0.62 -154.78,67.53 -154.78,149.61"/>
   <path class="fil3 str7" d="M10438.6 11290.85c0,-90.92 -79,-149.79 -157.51,-149.2 -82.27,0.62 -154.78,67.53 -154.78,149.61"/>
   <path class="fil3 str7" d="M11084.2 11290.85c0,-90.92 -79,-149.79 -157.51,-149.2 -82.27,0.62 -154.78,67.53 -154.78,149.61"/>
   <path class="fil3 str7" d="M11729.8 11290.85c0,-90.92 -79,-149.79 -157.51,-149.2 -82.27,0.62 -154.78,67.53 -154.78,149.61"/>
   <path class="fil3 str7" d="M12375.4 11290.85c0,-90.92 -78.99,-149.79 -157.51,-149.2 -82.27,0.62 -154.78,67.53 -154.78,149.61"/>
   <path class="fil3 str7" d="M13021 11290.85c0,-90.92 -78.99,-149.79 -157.51,-149.2 -82.27,0.62 -154.78,67.53 -154.78,149.61"/>
   <polygon class="fil0 str0" points="8845.96,11811.11 9134.32,11811.11 9134.32,12122.61 8845.96,12122.61 "/>
   <polygon class="fil0 str0" points="9491.55,11811.11 9779.91,11811.11 9779.91,12122.61 9491.55,12122.61 "/>
   <polygon class="fil0 str0" points="10137.17,11811.11 10425.53,11811.11 10425.53,12122.61 10137.17,12122.61 "/>
   <polygon class="fil0 str0" points="10782.76,11811.11 11071.13,11811.11 11071.13,12122.61 10782.76,12122.61 "/>
   <polygon class="fil0 str0" points="11428.37,11811.11 11716.72,11811.11 11716.72,12122.61 11428.37,12122.61 "/>
   <polygon class="fil0 str0" points="12073.97,11811.11 12362.33,11811.11 12362.33,12122.61 12073.97,12122.61 "/>
   <polygon class="fil0 str0" points="12719.56,11811.11 13007.92,11811.11 13007.92,12122.61 12719.56,12122.61 "/>
   <polygon class="fil0 str0" points="8218.36,11811.11 8506.73,11811.11 8506.73,12122.61 8218.36,12122.61 "/>
   <path class="fil2 str0" d="M21418.22 11547.17l288.37 0.15 -0.45 -256.22c0,-83.79 -75.21,-138.06 -147.58,-137.51 -75.83,0.58 -140.34,69.79 -140.34,145.44l0 248.14z"/>
   <path class="fil3 str7" d="M17200.46 11290.69c0,-90.92 -79,-149.79 -157.52,-149.2 -82.26,0.62 -154.78,67.53 -154.78,149.61"/>
   <path class="fil3 str7" d="M17846.06 11290.69c0,-90.92 -79,-149.79 -157.52,-149.2 -82.26,0.62 -154.78,67.53 -154.78,149.61"/>
   <path class="fil3 str7" d="M18491.66 11290.69c0,-90.92 -79,-149.79 -157.52,-149.2 -82.26,0.62 -154.78,67.53 -154.78,149.61"/>
   <path class="fil3 str7" d="M19137.26 11290.69c0,-90.92 -79,-149.79 -157.52,-149.2 -82.26,0.62 -154.78,67.53 -154.78,149.61"/>
   <path class="fil3 str7" d="M19782.86 11290.69c0,-90.92 -79,-149.79 -157.52,-149.2 -82.26,0.62 -154.78,67.53 -154.78,149.61"/>
   <path class="fil3 str7" d="M20428.47 11290.69c0,-90.92 -79,-149.79 -157.52,-149.2 -82.26,0.62 -154.78,67.53 -154.78,149.61"/>
   <path class="fil3 str7" d="M21074.07 11290.69c0,-90.92 -79,-149.79 -157.51,-149.2 -82.27,0.62 -154.79,67.53 -154.79,149.61"/>
   <path class="fil3 str7" d="M21719.67 11290.69c0,-90.92 -79,-149.79 -157.51,-149.2 -82.27,0.62 -154.79,67.53 -154.79,149.61"/>
   <polygon class="fil0 str0" points="16899.01,11811.11 17187.37,11811.11 17187.37,12122.61 16899.01,12122.61 "/>
   <polygon class="fil0 str0" points="17544.62,11811.11 17832.98,11811.11 17832.98,12122.61 17544.62,12122.61 "/>
   <polygon class="fil0 str0" points="18190.21,11811.11 18478.57,11811.11 18478.57,12122.61 18190.21,12122.61 "/>
   <polygon class="fil0 str0" points="18835.82,11811.11 19124.17,11811.11 19124.17,12122.61 18835.82,12122.61 "/>
   <polygon class="fil0 str0" points="19481.41,11811.11 19769.78,11811.11 19769.78,12122.61 19481.41,12122.61 "/>
   <polygon class="fil0 str0" points="20127.03,11811.11 20415.38,11811.11 20415.38,12122.61 20127.03,12122.61 "/>
   <polygon class="fil0 str0" points="20772.62,11811.11 21060.99,11811.11 21060.99,12122.61 20772.62,12122.61 "/>
   <polygon class="fil2 str0" points="21418.22,11811.11 21706.58,11811.11 21706.58,12122.61 21418.22,12122.61 "/>
   <path class="fil0 str8" d="M8845.95 11547.32l288.36 0.16 -0.45 -256.22c0,-83.79 -75.21,-138.06 -147.58,-137.51 -75.82,0.58 -140.33,69.79 -140.33,145.43l0 248.14z"/>
   <path class="fil0 str8" d="M8201.41 11540.11l288.37 0.16 -0.45 -256.22c0,-83.79 -75.21,-138.06 -147.58,-137.51 -75.83,0.58 -140.34,69.79 -140.34,145.43l0 248.14z"/>
   <path class="fil0 str8" d="M9491.55 11547.32l288.36 0.16 -0.45 -256.22c0,-83.79 -75.21,-138.06 -147.58,-137.51 -75.82,0.58 -140.33,69.79 -140.33,145.43l0 248.14z"/>
   <path class="fil0 str8" d="M10137.16 11547.32l288.37 0.16 -0.46 -256.22c0,-83.79 -75.21,-138.06 -147.58,-137.51 -75.82,0.58 -140.33,69.79 -140.33,145.43l0 248.14z"/>
   <path class="fil0 str8" d="M10782.76 11547.32l288.37 0.16 -0.46 -256.22c0,-83.79 -75.21,-138.06 -147.58,-137.51 -75.82,0.58 -140.33,69.79 -140.33,145.43l0 248.14z"/>
   <path class="fil0 str8" d="M11428.36 11547.32l288.37 0.16 -0.46 -256.22c0,-83.79 -75.21,-138.06 -147.58,-137.51 -75.82,0.58 -140.33,69.79 -140.33,145.43l0 248.14z"/>
   <path class="fil0 str8" d="M12073.96 11547.32l288.37 0.16 -0.46 -256.22c0,-83.79 -75.21,-138.06 -147.58,-137.51 -75.82,0.58 -140.33,69.79 -140.33,145.43l0 248.14z"/>
   <path class="fil0 str8" d="M12719.56 11547.32l288.37 0.16 -0.45 -256.22c0,-83.79 -75.22,-138.06 -147.59,-137.51 -75.82,0.58 -140.33,69.79 -140.33,145.43l0 248.14z"/>
   <path class="fil0 str9" d="M16899.01 11547.17l288.37 0.15 -0.45 -256.22c0,-83.79 -75.21,-138.06 -147.59,-137.51 -75.82,0.58 -140.33,69.79 -140.33,145.44l0 248.14z"/>
   <path class="fil0 str9" d="M17544.61 11547.17l288.37 0.15 -0.45 -256.22c0,-83.79 -75.21,-138.06 -147.59,-137.51 -75.82,0.58 -140.33,69.79 -140.33,145.44l0 248.14z"/>
   <path class="fil0 str9" d="M18190.21 11547.17l288.37 0.15 -0.45 -256.22c0,-83.79 -75.21,-138.06 -147.59,-137.51 -75.82,0.58 -140.33,69.79 -140.33,145.44l0 248.14z"/>
   <path class="fil0 str9" d="M18835.81 11547.17l288.37 0.15 -0.45 -256.22c0,-83.79 -75.21,-138.06 -147.59,-137.51 -75.82,0.58 -140.33,69.79 -140.33,145.44l0 248.14z"/>
   <path class="fil0 str9" d="M19481.41 11547.17l288.37 0.15 -0.45 -256.22c0,-83.79 -75.21,-138.06 -147.58,-137.51 -75.83,0.58 -140.34,69.79 -140.34,145.44l0 248.14z"/>
   <path class="fil0 str9" d="M20127.02 11547.17l288.37 0.15 -0.45 -256.22c0,-83.79 -75.21,-138.06 -147.58,-137.51 -75.83,0.58 -140.34,69.79 -140.34,145.44l0 248.14z"/>
   <path class="fil0 str9" d="M20772.62 11547.17l288.37 0.15 -0.45 -256.22c0,-83.79 -75.21,-138.06 -147.58,-137.51 -75.83,0.58 -140.34,69.79 -140.34,145.44l0 248.14z"/>
   <path class="fil4 str10" d="M14849.47 1407.12c5025.8,0 9100.01,4074.2 9100.01,9100.01 0,5025.81 -4074.21,9100.01 -9100.01,9100.01 -5025.8,0 -9100.01,-4074.2 -9100.01,-9100.01 0,-5025.81 4074.21,-9100.01 9100.01,-9100.01zm-0.01 2531.27c3627.82,0 6568.74,2940.91 6568.74,6568.73 0,3627.83 -2940.92,6568.74 -6568.74,6568.74 -3627.81,0 -6568.73,-2940.91 -6568.73,-6568.74 0,-3627.82 2940.92,-6568.73 6568.73,-6568.73z"/>
   <path class="fil2" d="M7493.96 7877.87c223.37,0 404.44,181.09 404.44,404.45 0,223.36 -181.07,404.44 -404.44,404.44 -223.38,0 -404.45,-181.08 -404.45,-404.44 0,-223.36 181.07,-404.45 404.45,-404.45z"/>
   <path class="fil2" d="M12740.89 14107.66c55.84,0 101.11,45.26 101.11,101.11 0,55.84 -45.27,101.11 -101.11,101.11 -55.84,0 -101.11,-45.27 -101.11,-101.11 0,-55.85 45.27,-101.11 101.11,-101.11z"/>
   <path class="fil2" d="M17088.15 14113.13c55.84,0 101.11,45.26 101.11,101.11 0,55.84 -45.27,101.11 -101.11,101.11 -55.84,0 -101.11,-45.27 -101.11,-101.11 0,-55.85 45.27,-101.11 101.11,-101.11z"/>
   <path class="fil3" d="M14849.47 3663.28c3779.75,0 6843.84,3064.1 6843.84,6843.84 0,3779.75 -3064.09,6843.85 -6843.84,6843.85 -3779.75,0 -6843.84,-3064.1 -6843.84,-6843.85 0,-3779.74 3064.09,-6843.84 6843.84,-6843.84z"/>
   <path class="fil1" d="M7415.09 6932.26l68.85 -134.35 444.49 227.8c31.37,-61.34 41.75,-110.73 30.61,-147.65 -10.87,-37.19 -51.75,-98.3 -122.36,-183.58 -52.02,-62.17 -87.06,-109.2 -105.1,-141.61 -18.31,-32.41 -28.13,-70.12 -29.43,-113.41 -1.31,-43.3 8.27,-85.25 29,-125.88 26.58,-51.51 40.94,-78.59 43.33,-80.98l116.29 59.81c-2.38,4.51 -7.17,13.27 -14.6,26.55 -7.98,14.6 -12.76,23.36 -14.37,26.55 -22.05,43.02 -27.91,80.19 -17.84,111.54 9.81,31.87 41.66,78.9 95.55,140.8 68.49,78.12 107.77,134.7 118.12,169.76 10.33,35.07 13.77,72.25 10.3,111.83 51.55,-56.29 145.31,-89.98 280.77,-100.8l445.14 -35.93 -85.59 166.76 -362.54 28.52c-99.87,7.66 -172.11,19.84 -216.74,36.55 -44.35,16.98 -79.43,50.16 -104.95,100.08l475.03 243.22 -68.85 134.36 -1015.11 -519.94z"/>
   <polygon id="_1_1" class="fil1" points="7957.83,5971.75 8038.11,5861.09 8769.44,6391.29 8394.35,5369.56 8483.47,5246.74 9406.81,5916.29 9326.28,6027.21 8597.06,5498.34 8969.77,6519 8881.17,6641.28 "/>
   <path id="_2" class="fil1" d="M9597.07 5718.31l-829.28 -783.4 103.75 -109.74 829.03 783.4 -103.5 109.74zm-979.82 -725.99l-116.15 -109.57 100.6 -106.27 115.88 109.57 -100.33 106.27zm199.34 -210.93l-115.87 -109.58 100.33 -106.26 115.87 109.58 -100.33 106.26z"/>
   <path id="_3" class="fil1" d="M9876.3 5416.34l-745.2 -862.02 323.49 -279.61c65.66,-56.78 125.98,-93.9 180.98,-110.85 54.73,-16.94 109.17,-16.89 163.06,-0.1 53.9,16.78 97.96,44.97 132.2,84.31 31.83,36.95 51.7,80.26 59.89,130.2 8.19,49.67 0.7,101.99 -22.47,156.95 65.38,-29.69 128.06,-38.39 188.07,-25.59 59.75,12.55 111.5,43.94 154.74,94.17 35.02,40.14 58.88,85.05 71.84,134.72 12.98,49.41 15.05,94.3 6.25,134.67 -8.8,40.62 -28.22,82.03 -57.75,124.24 -29.52,42.45 -71.53,87.3 -126.55,134.79l-328.55 284.12zm-318.13 -598.41l186.33 -161.3c50.78,-43.5 84.01,-78.26 100.24,-104.01 21.54,-33.7 31.14,-66.89 28.51,-99.57 -2.63,-32.66 -16.94,-64.02 -42.93,-94.31 -24.94,-28.45 -53.34,-47.87 -85.99,-57.72 -32.67,-9.86 -65.07,-7.77 -97.49,6.28 -32.41,13.78 -79.45,47.72 -141.39,101.31l-172.24 148.82 224.96 260.5zm344.1 397.92l214.77 -185.44c36.68,-31.83 61.41,-55.71 73.9,-71.1 22.34,-27.6 37.51,-54.41 45.49,-80.7 8.26,-26.01 9.09,-54.7 2.21,-85.52 -6.87,-30.81 -21.98,-59.77 -45.59,-87.15 -27.86,-32.16 -60.24,-52.91 -97.15,-62.51 -37.17,-9.6 -74.36,-6.45 -111.82,9.19 -37.47,15.63 -83.7,47.2 -138.47,94.68l-199.36 172.17 256.02 296.38z"/>
   <path id="_4" class="fil1" d="M11126.82 3986.27l148.01 -48.38c39.26,121.91 41.42,232.15 6.76,330.97 -34.95,98.83 -102.7,179.9 -202.99,243.22 -104.04,65.42 -202,97.41 -293.88,96.26 -91.62,-1.43 -179.86,-31.52 -264.44,-90.26 -84.59,-58.75 -155.78,-134.4 -213.85,-226.42 -63.31,-100.58 -99.28,-200.15 -107.9,-299.28 -8.89,-98.86 10.07,-190.09 56.33,-273.7 46.52,-83.34 112.05,-151.95 197.15,-205.54 96.56,-60.69 193.16,-87.12 290.04,-79.56 96.62,7.58 186.12,47.77 267.95,120.57l-106.97 108.95c-66.55,-56.23 -131.15,-86.95 -193.79,-92.16 -62.9,-5.21 -126.51,12.67 -190.8,53.14 -74.16,46.77 -125.01,103.52 -152.56,170.52 -27.28,66.75 -32.27,136.57 -14.71,209.19 17.57,72.63 46.31,140.56 86.51,204.3 51.49,81.89 108.69,146.03 171.05,192.14 62.36,46.11 128.61,68.61 197.94,66.96 69.59,-1.38 133.73,-20.6 192.42,-57.64 71.49,-45.19 119.16,-103.83 142.77,-176.44 23.6,-72.35 18.59,-154.71 -15.04,-246.84z"/>
   <path id="_5" class="fil1" d="M11165.16 3122.09l136.95 -62.68 203.07 442.37 247.41 -113.24c115.5,-52.99 205.39,-77.95 269.41,-74.86 64.3,3.08 118.32,22.42 162.08,58.29 43.76,35.86 76.95,78.43 99.27,127.44 36.86,80 41.58,162.83 14.72,248.24 -27.13,85.42 -115.13,162.15 -264,230.47l-393.89 180.49 -475.02 -1036.52zm558.71 857.02l251.11 -115.12c101.73,-46.53 159.88,-94.94 174.19,-145.23 14.32,-50.27 9.77,-100.71 -13.63,-151.83 -18.83,-41.33 -46.36,-71.44 -82.05,-90.09 -35.44,-18.92 -73.97,-24.01 -115.09,-15.27 -41.12,8.46 -106.31,33.27 -195.32,74.16l-183.83 84.19 164.62 359.19z"/>
   <path id="_6" class="fil1" d="M12298.39 2659.58l145.42 -40.37 133.39 480.95c66.47,-18.34 109.59,-44.21 129.37,-77.34 19.78,-33.12 37.04,-104.5 52.05,-214.12 10.4,-80.45 21.51,-138.03 33.05,-173.31 11.56,-35.29 32.66,-67.88 63.58,-98.29 30.66,-30.43 68.19,-51.55 112.05,-63.87 56.1,-15.45 85.61,-23.05 88.8,-22.77l35.11 125.76c-5.04,1.3 -14.88,3.93 -29.5,7.32 -16.22,3.93 -26.05,6.27 -29.51,7.32 -46.53,12.85 -77.68,33.72 -93.99,62.33 -16.83,28.89 -29.78,84.09 -38.86,165.85 -11.27,103.01 -26.13,170.15 -44.84,201.69 -18.98,31.26 -44.04,59.06 -75.47,83.37 76.49,-0.24 164.49,45.77 264.28,138.03l327.67 302.94 -180.79 50.05 -266 -247.2c-73.31,-68.52 -131.31,-113.36 -173.72,-134.76 -42.41,-21.15 -90.74,-24.51 -144.71,-9.58l142.55 514.18 -145.41 40.1 -304.52 -1098.28z"/>
   <polygon id="_7" class="fil1" points="13356.15,2383.8 13492.08,2366.48 13605.79,3262.56 14093.99,2290.13 14244.27,2270.92 14388.02,3402.24 14252.34,3419.56 14138.65,2525.87 13649.64,3495.91 13499.9,3515.13 "/>
   <path id="_8" class="fil1" d="M14662.3 2253.4l136.81 2.92 -18.17 902.64 624.62 -890.38 151.67 3.06 -22.96 1139.58 -136.8 -2.64 17.93 -900.25 -625.17 888 -150.88 -3.08 22.95 -1139.85zm571.65 -259.43l95.64 1.9c-9.06,64.62 -33.9,113.94 -74.28,147.72 -40.37,34.05 -93.36,50.4 -159.24,49.06 -66.41,-1.34 -118.88,-19.79 -157.92,-55.08 -39.06,-35.01 -61.76,-85.56 -68.11,-150.85l95.62 1.91c6.66,35.26 20.41,61.99 41.53,79.62 21.12,17.89 49.88,27.23 86.27,27.74 41.97,1 73.78,-6.68 95.7,-23.32 21.92,-16.38 36.85,-42.52 44.79,-78.7z"/>
   <polygon id="_9" class="fil1" points="16220.25,3530.81 16479.08,2421.09 17281.56,2608.54 17250.95,2739.46 16595.57,2586.35 16516.22,2926.25 17130.16,3069.51 17099.55,3199.9 16485.87,3056.63 16397.73,3434.24 17078.85,3593.21 17048.24,3724.13 "/>
   <path id="_10" class="fil1" d="M17734.31 2778.12l665.43 259.63 -414.79 1062.44 -140.59 -54.85 365.67 -937.02 -383.96 -149.93 -213.66 547.2c-43.36,111.03 -80.28,190.42 -111.05,238.16 -30.49,47.48 -68,79.34 -112.52,95.03 -44.52,15.7 -92.6,13.62 -143.72,-6.49 -30.9,-12.01 -65.82,-32.23 -104.78,-60.93l72.54 -115.22c19.51,18.73 37.39,31.1 53.9,37.63 31.69,12.54 60.35,9.96 85.73,-7.73 25.12,-17.7 55.05,-71.01 89.79,-159.95l292.01 -747.97z"/>
   <polygon id="_11" class="fil1" points="18210.3,4219.42 18823.6,3258.5 19518.19,3701.93 19445.91,3815.38 18878.37,3453.2 18690.55,3747.5 19222.15,4086.73 19150.13,4199.38 18618.54,3860.16 18409.62,4187.2 18999.53,4563.64 18927.25,4677.09 "/>
   <path id="_12" class="fil1" d="M19801.76 3914.11l118.43 93.6 -309.86 391.02c54.04,42.93 100.19,62.47 138.72,58.87 38.52,-3.33 106.34,-31.53 203.45,-84.08 71.3,-38.82 124.23,-64.15 159.59,-75.45 35.09,-11.58 74.14,-13.58 116.62,-6.81 42.73,7.04 81.98,24.69 117.75,53.22 45.56,36 69.14,55.2 70.99,58.13l-81.06 102.26c-4.24,-3.2 -11.92,-9.6 -23.32,-19.46 -12.71,-10.66 -20.4,-17.06 -23.3,-19.47 -37.89,-29.86 -73.17,-42.99 -105.85,-39.1 -33.21,3.6 -85.33,25.48 -156.64,66.43 -89.93,51.77 -152.97,79.19 -189.36,82.53 -36.13,3.34 -73.57,-0.76 -111.78,-11.77 45.22,61.49 60.05,159.81 44.21,294.94l-51.32 442.85 -147.04 -116.27 42.84 -360.53c12,-99.56 14.09,-172.86 6.27,-219.63 -7.82,-47.03 -33.72,-87.75 -77.43,-122.41l-331.18 417.79 -118.15 -93.6 707.42 -893.06z"/>
   <polygon id="_13" class="fil1" points="19998.75,5617.42 20733.61,4930.9 20477.01,4656.44 20575.46,4564.5 21192.42,5224.71 21093.98,5316.65 20836.6,5041.12 20101.76,5727.64 "/>
   <path id="_14" class="fil1" d="M20452.76 6128.21l934.22 -654.27 246.85 352.48c43.29,62 73.41,111.39 90.35,148.2 24.51,51.47 37.11,99.92 37.24,146.14 0.39,45.95 -12.22,92.04 -37.85,137.77 -25.37,45.99 -61.04,85.26 -107.53,117.79 -79.37,55.61 -164.28,77.45 -254.75,65.24 -90.46,-11.95 -182,-83.92 -274.34,-216.2l-167.89 -239.44 -379.73 265.74 -86.57 -123.45zm576.66 -219.68l168.94 241.58c56.14,79.9 110.72,126.33 163.73,139 53.27,12.68 107.04,0.14 161.01,-37.64 39.01,-27.28 65.6,-60.78 79.49,-99.96 14.15,-39.19 14.23,-77.97 0.48,-116.6 -9.08,-24.78 -33.16,-65.09 -72.51,-121.21l-167.37 -238.91 -333.77 233.74z"/>
   <path id="_15" class="fil1" d="M21502.56 6688.22c168.73,-85.36 323.86,-107 465.11,-64.64 141.52,42.11 248.46,135.16 320.83,278.38 47.72,93.79 68.08,189.95 61.35,287.95 -6.74,97.99 -40.28,187.2 -100.38,267.36 -60.36,80.14 -141.16,145.93 -242.93,197.36 -103.09,52.23 -205.9,78.16 -308.42,77.79 -102.25,-0.63 -193.85,-28.32 -274.27,-83.38 -80.42,-55.05 -143.04,-126.82 -187.84,-215.3 -48.51,-95.66 -68.6,-192.89 -60.54,-291.67 8.06,-98.79 42.4,-187.73 102.76,-267.09 60.37,-79.35 135.06,-141.69 224.33,-186.76zm68.13 139.76c-122.49,62.03 -202.52,143.76 -239.52,245.45 -37.28,101.41 -30.74,202.07 19.64,301.46 51.43,101.23 129.18,166.64 233.53,195.95 104.34,29.31 221.75,10.83 352.75,-55.18 82.63,-41.88 147.75,-92.55 195.34,-151.73 47.6,-59.18 74.75,-124.49 81.46,-195.4 6.71,-71.16 -6.77,-140.23 -40.71,-207.18 -48.24,-95.4 -122.55,-160.81 -222.64,-196.23 -100.09,-35.67 -226.79,-14.54 -379.85,62.86z"/>
   <path id="_16" class="fil1" d="M21552.73 8098.41l1098.55 -304.28 60.8 218.8 -705.84 475.45c-65.76,44.11 -115.28,76.59 -148.03,97.45 43.29,1.49 107.56,4.66 192.26,9.74l837.21 51.18 54.25 195.67 -1098.54 304.28 -38.78 -140.11 919.34 -254.74 -1007.93 -64.29 -36.17 -131.34 846.98 -576.64 -935.04 258.94 -39.06 -140.11z"/>
   <polygon id="_17" class="fil1" points="21890.6,9392.34 23027.3,9299.88 23093.94,10121.75 22959.88,10132.66 22905.33,9461.31 22557.04,9489.73 22608.42,10118.34 22474.89,10129.25 22423.78,9500.37 22037,9531.95 22093.59,10229.85 21959.53,10240.75 "/>
   <path id="_18" class="fil1" d="M21961.44 10333.98l585.16 452.82 553.49 -377.71 -3.39 179.56 -296.7 200.97c-61.29,41.91 -108.6,71.49 -141.67,89 40.84,26.25 83.57,56.99 127.94,92.77l297.95 235.4 -3.51 164.17 -529.05 -411.29 -611.35 419.32 3.87 -186.75 412.44 -278.61c23.52,-15.58 49.42,-31.73 77.18,-48.14 -40.84,-26.24 -69.13,-44.88 -84.36,-56.18l-391.65 -294.17 3.65 -181.16z"/>
   <path id="_19" class="fil1" d="M21911.51 11386.77l1040.37 638.73 -29.87 159.77 -1205.74 250.32 31.51 -169.06 363.6 -67.57 87.16 -468.41 -316.36 -186.14 29.33 -157.64zm399.9 409.04l-70.6 379.77 331.97 -59.19c101,-18.19 183.37,-30.34 247.14,-36.44 -69.21,-27.64 -136.79,-60.86 -202.77,-100.16l-305.74 -183.98z"/>
   <polygon id="_20" class="fil1" points="21680.88,12559.92 22743.32,12974.7 22688.47,13115.29 22252.32,12944.99 22036.83,13497.25 22472.99,13667.55 22418.14,13808.14 21355.7,13393.36 21410.55,13252.76 21911.41,13448.4 22126.9,12896.16 21626.03,12700.52 "/>
   <polygon id="_21" class="fil1" points="21228.64,13640.5 22243.76,14160.42 22174.92,14294.77 21159.79,13774.86 "/>
   <path id="_22" class="fil1" d="M20605.1 14700.15l81.25 -127.04 387.51 247.16c30.19,-141.15 72.72,-254.48 127.59,-340.24 42.47,-66.85 95.9,-115.69 159.78,-147.04 63.87,-31.09 125.18,-39.86 184.46,-26.57 59.02,13.55 127.41,44.87 205.19,94.72l282.58 180.16 -81.25 127.31 -270.59 -173.05c-104.94,-66.73 -186.06,-91.61 -243.35,-74.63 -57.55,17.26 -103.35,52.78 -137.64,106.58 -57.24,89.48 -97.41,196.43 -120.77,320.56l467.41 298.34 -81.23 127.04 -960.94 -613.3z"/>
   <polygon id="_23" class="fil1" points="20445.27,14898.57 21311.35,15640.72 21213.23,15755.28 20857.57,15450.58 20471.7,15900.82 20827.34,16205.5 20729.22,16320.06 19863.14,15577.92 19961.26,15463.37 20369.39,15813.27 20755.28,15363.04 20347.15,15013.13 "/>
   <polygon id="_24" class="fil1" points="20380.09,16646.48 20272.78,16731.02 19713.87,16022.86 19796.97,17106.73 19678.01,17200.59 18972.18,16306.19 19079.48,16221.4 19637.05,16927.96 19555.82,15845.42 19674.24,15752.09 "/>
   <path id="_25" class="fil1" d="M19334.03 17439.09l-118.45 68.26 -449.88 -782.43 -75.72 1084.64 -131.47 75.69 -568.06 -987.99 118.72 -68.25 448.55 780.3 77.59 -1082.79 130.93 -75.16 567.79 987.73zm-356.43 517.09l-82.86 47.53c-25.49,-60.02 -29.74,-114.99 -12.75,-164.66 17.27,-49.92 54.19,-91.36 111.29,-124.03 57.37,-33.19 112.08,-44.61 163.6,-34.52 51.53,10.09 96.94,41.71 136.25,94.3l-82.86 47.8c-23.91,-27.1 -49.4,-42.76 -76.76,-47.01 -27.36,-4.25 -56.84,2.39 -88.18,20.71 -36.38,20.72 -59.76,43.81 -69.85,69.32 -10.35,25.22 -9.56,55.5 2.12,90.56z"/>
   <path id="_26" class="fil1" d="M17227.95 18259.15l39.05 140.91 -136.39 37.74 -39.05 -140.91c-141.94,31.35 -264.07,19.74 -366.12,-34.55 -102.31,-54.29 -168.94,-138.2 -200.64,-252.26 -30.93,-111.4 -17.79,-216.79 38.88,-316.44 56.95,-99.65 156.54,-173.65 299.35,-221.71l-39.31 -141.71 136.38 -37.74 39.32 141.71c131.31,-31.12 250.26,-21.39 357.37,28.68 106.85,50.33 177.17,136.37 210.98,258.4 34.07,122.3 17.99,232.19 -47.7,329.42 -65.96,97.22 -163.16,166.71 -292.12,208.46zm-170.72 -86.68l-159.61 -575.33c-92.54,30.47 -159.11,78.03 -199.19,142.95 -40.08,64.92 -48.07,141.12 -23.69,228.58 23.85,85.87 69.04,146.6 135.83,182.17 67.07,35.57 149.11,42.78 246.66,21.63zm136.12 -38.54c89.35,-29.15 155.12,-75.9 197.33,-141.09 42.2,-64.91 50.99,-141.63 26.62,-229.9 -24.38,-87.47 -70.9,-148.46 -140.09,-183.24 -68.92,-34.52 -149.9,-41.19 -242.94,-19.76l159.08 573.99z"/>
   <path id="_27" class="fil1" d="M16346.23 17480.59l-290.88 1186.28 -161.16 20.58 -606.8 -1072.31 170.72 -21.67 175.28 325.73 473.13 -60.1 80.67 -358.21 159.04 -20.3zm-267.56 506.06l-383.38 48.73 157.68 298.13c48.28,90.72 84.85,165.52 110.22,224.43 5.14,-74.38 16.38,-149.03 33.46,-223.7l82.02 -347.59z"/>
   <path id="_28" class="fil1" d="M15281.06 17626.13l-452.82 585.16 377.71 553.49 -179.56 -3.39 -200.97 -296.7c-41.91,-61.29 -71.49,-108.6 -89,-141.67 -26.25,40.84 -56.99,83.57 -92.77,127.94l-235.4 297.95 -164.17 -3.51 411.29 -529.05 -419.32 -611.35 186.75 3.87 278.61 412.44c15.58,23.52 31.73,49.42 48.14,77.18 26.23,-41.11 44.88,-69.13 56.18,-84.36l294.17 -391.65 181.16 3.65z"/>
   <path id="_29" class="fil1" d="M14096.68 18155.46c-34.49,186.04 -111.53,322.5 -230.86,409.13 -119.61,86.62 -258.1,115.27 -416.26,85.95 -103.24,-19.28 -192.04,-61.34 -265.88,-126.18 -73.83,-64.83 -124.23,-145.51 -151.46,-242.03 -27.23,-96.53 -30.26,-200.92 -9.35,-312.9 21.18,-113.86 63.01,-211.16 125.48,-292.18 62.48,-81.28 139.99,-137 232.81,-167.43 92.55,-30.7 187.66,-36.69 284.79,-18.76 105.62,19.81 194.95,62.68 268.51,129.11 73.57,66.43 123.7,147.64 150.13,243.62 26.43,96.25 30.55,193.47 12.09,291.67zm-152.32 -30.63c24.99,-135.08 8.45,-248.03 -49.61,-339.36 -58.06,-91.07 -142.03,-146.92 -251.63,-167.29 -111.46,-20.9 -210.62,1.27 -297.47,66.52 -86.57,64.99 -143.31,169.66 -170.19,313.76 -16.84,91.3 -16.38,173.63 1.92,247.54 18.02,73.64 53.36,134.87 105.75,183.42 52.39,48.29 115.47,79.35 189.52,93.19 104.82,19.56 201.85,0.3 291.05,-57.77 88.94,-58.07 149.16,-171.22 180.66,-340.01z"/>
   <path id="_30" class="fil1" d="M12942.3 17364.43l-358.71 1082.48 -406.16 -134.41c-82.77,-27.34 -145.4,-60.41 -188.14,-98.9 -42.75,-38.24 -70.67,-85.07 -83.77,-139.96 -13.38,-54.89 -11.59,-107.22 4.82,-157 15.37,-46.31 42.2,-85.53 81.04,-118.18 38.56,-32.66 87.29,-52.89 146.47,-61.24 -59.23,-41.04 -98.59,-90.46 -118.61,-148.23 -19.77,-58.03 -19.37,-118.59 1.47,-181.41 16.94,-50.83 43.22,-94.3 79.1,-130.92 35.88,-36.35 73.43,-61.29 112.66,-74.56 39.49,-13 84.88,-17.81 136.42,-14.17 51.55,3.66 111.66,17.07 180.6,39.74l412.81 136.76zm-351.33 580.2l-233.96 -77.36c-63.61,-21.1 -110.43,-31.95 -140.71,-32.82 -40.11,-1.33 -73.52,7.65 -100.22,26.67 -26.97,19.04 -46.43,47.32 -59.2,85.39 -11.72,35.92 -13.63,70.19 -5.44,103.34 8.18,33.15 26.68,59.85 55.23,80.65 28.55,20.53 81.82,43.82 159.54,69.61l216.39 71.64 108.37 -327.12zm165.68 -499.85l-269.63 -89.35c-46.05,-15.37 -79.3,-24.45 -98.97,-26.98 -35.1,-5.09 -65.89,-4.35 -92.68,1.93 -26.51,6.54 -51.39,20.52 -74.36,42.17 -23.23,21.67 -40.31,49.67 -51.78,84.01 -13.28,40.45 -14.62,78.97 -3.77,115.55 10.86,36.58 32.58,66.98 65.14,91.21 32.82,24.22 83.43,47.8 152.37,70.72l250.46 82.84 123.22 -372.1z"/>
   <polygon id="_31" class="fil1" points="11415.29,18013.24 11293.41,17950.78 11705.13,17147.02 10753.32,17674.09 10618.43,17604.97 11138.32,16589.85 11260.2,16652.31 10849.55,17454.22 11800.83,16929.27 11935.19,16998.11 "/>
   <path id="_32" class="fil1" d="M10215.76 17350.67l-107.3 -84.8 560.23 -707.35 -1035.52 330.84 -118.69 -94.12 707.44 -893.07 107.03 84.8 -558.64 705.5 1034.71 -328.46 118.15 93.6 -707.41 893.06zm-613.08 -138.18l-74.97 -59.46c46.34,-45.8 95.82,-70.08 148.42,-72.84 52.59,-2.49 104.85,16.54 156.25,57.33 52.19,41.33 82.86,87.65 92.52,139.47 9.67,51.55 -2.72,105.43 -37.17,161.35l-74.97 -59.46c16.3,-32.09 21.44,-61.54 15.42,-88.65 -6.29,-26.85 -23.48,-51.61 -51.82,-74.27 -33.12,-25.86 -63.1,-38.98 -90.44,-39.06 -27.36,-0.35 -55.02,11.51 -83.24,35.59z"/>
   <path id="_33" class="fil1" d="M8852.17 16174.26l-98.68 -114.04 377.45 -326.3c-45.1,-52.36 -86.76,-80.29 -125.27,-83.78 -38.52,-3.76 -110.23,11.04 -215.7,44.68 -77.05,24.62 -133.89,39.44 -170.55,44.18 -36.93,4.75 -75.43,-0.34 -116.05,-15.25 -40.62,-14.91 -75.92,-39.65 -105.63,-74.21 -37.93,-43.86 -57.56,-67.25 -58.89,-70.17l98.88 -85.42c3.18,3.72 9.81,11.69 19.1,23.39 10.61,12.76 16.98,20.73 19.37,23.39 31.56,36.41 63.68,55.84 96.61,58.26 33.19,2.68 88.45,-9.21 166.03,-35.96 98.03,-33.9 165.24,-49.23 201.62,-45.48 36.11,3.48 71.96,14.14 107.53,32.23 -32.87,-68.81 -29.04,-168.15 11.71,-297.71l133.47 -425.61 122.3 141.68 -109.49 346.22c-30.37,95.58 -46.11,167.01 -47.22,214.55 -0.84,47.54 16.91,92.44 53.25,134.7l403.5 -348.59 98.42 114.03 -861.76 745.21z"/>
   <path id="_34" class="fil1" d="M8676.7 15073.54c-160.31,100.89 -312.75,136.76 -457.3,107.88 -144.81,-28.89 -260.04,-111.22 -345.69,-247.26 -56.23,-89.09 -85.33,-182.77 -87.84,-281.06 -2.5,-98.29 22.55,-190.28 74.94,-275.7 52.37,-85.43 126.98,-158.49 223.54,-219.17 97.9,-61.74 197.74,-97.18 299.79,-106.31 102.05,-9.12 195.67,10.12 281.14,57.44 85.19,47.34 154.32,112.88 207.13,196.65 57.01,90.95 86.37,185.71 87.54,285.05 1.18,99.07 -24.68,191.05 -77.32,275.69 -52.64,84.62 -121.37,153.46 -205.93,206.79zm-81.15 -132.82c116.3,-73.29 188.36,-162.04 215.9,-266.76 27.28,-104.72 11.5,-204.16 -47.88,-298.59 -60.69,-96.03 -144.22,-153.71 -250.85,-173.3 -106.63,-19.59 -222.11,9.89 -346.15,87.92 -78.68,49.66 -138.83,106.08 -180.71,169.53 -41.86,63.46 -62.77,130.77 -62.74,202.22 0.05,71.45 20.03,138.78 59.97,202.53 57.01,90.43 137.08,148.61 240.22,174.56 102.87,26.2 227.13,-6.68 372.24,-98.11z"/>
   <path id="_35" class="fil1" d="M7419.49 14092.73l-297.47 -648.98 1036.25 -475.01 62.93 136.94 -914.13 419.34 171.87 374.55 533.76 -244.76c108.34,-49.5 190.22,-81.04 245.12,-93.85 55.17,-13.06 104.33,-9.89 147.19,9.78 42.88,19.67 75.76,54.54 98.61,104.6 13.99,30.2 24.84,68.92 33.08,116.68l-132.34 32.37c-0.95,-27.09 -5.06,-48.31 -12.33,-64.47 -14.25,-30.99 -36.67,-49.19 -67.24,-54.06 -30.3,-4.88 -88.9,12.73 -175.78,52.54l-729.52 334.33z"/>
   <polygon id="_36" class="fil1" points="8091.85,12723.35 6993.3,13027.85 6773.18,12233.46 6902.91,12197.55 7082.68,12846.53 7419.01,12753.23 7250.77,12145.74 7379.44,12109.84 7547.94,12717.6 7921.75,12614.08 7734.91,11939.6 7864.65,11903.69 "/>
   <path id="_37" class="fil1" d="M6692.87 11736.02l-87.44 -688.19 997.77 -126.7 -12.99 -101.96 397.46 -50.62 17.05 133.56 -263.9 33.56 94.74 747.67 263.92 -33.57 17.05 133.56 -397.46 50.62 -11.11 -88.16c-148.9,-73.47 -432.3,-83.68 -849.94,-30.88l-165.15 21.11zm65.06 -555.5l50.08 394.27 57.88 -7.3c96.11,-12.18 228.89,-20.47 398.06,-24.34 169.17,-3.85 310.5,12.54 424.53,49.19l-66.33 -521.73 -864.22 109.91z"/>
   <path id="_38" class="fil1" d="M6638.17 9838.26l497.2 41.27c6.29,-73.79 -3.22,-125.91 -28,-155.54 -24.79,-29.89 -85.62,-70.63 -181.99,-121.69 -71.74,-37.62 -122.29,-67.94 -151.36,-90.96 -29.07,-23.01 -52.25,-54.23 -70.07,-93.65 -17.82,-39.41 -25.01,-81.43 -21.28,-126.55 4.29,-49.11 7.12,-79.37 9.33,-91.31l130.07 10.89c-0.3,4.78 -1.42,14.33 -3.1,29.46 -1.96,16.45 -3.09,26.54 -3.37,30 -4.02,48.04 4.52,84.74 25.89,109.84 21.35,25.63 68.71,56.99 142.04,93.82 79.44,39.8 132.89,73.06 160.61,99.79 27.46,26.72 49.27,64.04 65.19,111.41 26.73,-72.61 100.44,-139.09 220.86,-199.18l397.5 -202.61 -15.48 186.09 -324.23 164.02c-85.78,43.83 -146.84,81.7 -183.16,113.61 -36.57,31.65 -57.31,78.79 -62.47,141.44l531.44 44.16 -12.88 153.95 -531.46 -44.14c-4.01,49.65 5.27,94.58 28.4,134.56 22.86,40.25 75.15,89.17 157.4,147.04l14.54 10.44 292.69 215.33 -15.48 186.88 -358.78 -265.39c-109.2,-80.87 -170.87,-158.8 -184.76,-233.78 -19.89,39.45 -44.79,70.9 -74.67,94.35 -29.63,23.46 -90.61,49.38 -182.94,77.77 -83.82,25.78 -137.08,49.36 -159.52,70.74 -22.71,21.64 -35.93,55.28 -39.66,101.21l-3.56 60.54 -130.07 -10.63c-0.5,-5.84 1.27,-34.78 5.58,-86.82 4.28,-49.63 17.82,-91.78 41.4,-126.43 23.32,-34.91 51.37,-61.3 83.88,-79.43 32.25,-18.12 87.62,-40.1 165.61,-66.45 105.38,-34.95 172.23,-64.81 200.27,-89.88 28.04,-25.05 45.6,-74.61 52.96,-148.93l-497.46 -41.29 12.89 -153.95z"/>
  </g>
 </g>
</svg>
